<svg xmlns:xlink="http://www.w3.org/1999/xlink" xmlns="http://www.w3.org/2000/svg" width="11" height="16" viewBox="0 0 11 16" fill="none">
<g clip-path="url(#clip0_26550_189334)">
<path d="M6.57081 12.1915C5.66434 12.1915 4.79807 12.1915 3.88289 12.1915C3.88289 12.0361 3.88289 11.8847 3.88289 11.7333C3.88289 10.8509 3.89428 9.96857 3.87954 9.08622C3.8648 8.20454 4.23395 7.54059 4.95417 7.0542C5.49015 6.69174 6.03015 6.33532 6.55808 5.9608C7.21733 5.49316 7.48197 4.84128 7.28969 4.06277C7.21733 3.77 7.02572 3.45712 6.79659 3.26082C5.94238 2.5272 4.50462 2.49035 3.57604 3.13285C2.91277 3.59178 2.73657 4.28521 2.69101 5.03021C2.66957 5.38329 2.68699 5.73837 2.68699 6.10083C2.59118 6.11423 2.53759 6.12763 2.48399 6.1283C1.66997 6.12964 0.855959 6.12897 0.00442541 6.12897C-0.0357728 4.64029 0.111621 3.24943 1.01608 1.98787C3.08763 -0.903051 7.80155 -0.547297 9.59037 2.45015C10.7347 4.36694 10.3066 6.59661 8.51038 7.91779C8.19616 8.14893 7.86051 8.34992 7.53222 8.56096C6.88302 8.97768 6.52458 9.54046 6.56545 10.3431C6.5956 10.944 6.57081 11.5477 6.57081 12.1915Z" fill="white"/>
<path d="M3.88867 13.291C4.79045 13.291 5.66611 13.291 6.55985 13.291C6.55985 14.1968 6.55985 15.0859 6.55985 16.001C5.67615 16.001 4.79246 16.001 3.88867 16.001C3.88867 15.1026 3.88867 14.2142 3.88867 13.291Z" fill="white"/>
</g>
<defs>
<clipPath id="clip0_26550_189334">
<rect width="10.2251" height="16.0002" fill="white"/>
</clipPath>
</defs>
</svg>