<svg xmlns:xlink="http://www.w3.org/1999/xlink" fill="none" height="19" viewBox="0 0 22 19" width="22" xmlns="http://www.w3.org/2000/svg" class="inline"><g clip-path="url(#clip0_24567_185037)" fill="none"><path d="M5.74912 14.9272C6.30303 14.4719 6.84637 14.0251 7.40592 13.5657C8.89358 15.2711 10.7555 16.152 13.0127 16.1055C14.6526 16.0716 16.1135 15.5107 17.3636 14.4395C19.8901 12.2746 20.5426 8.56424 18.9084 5.69884C17.2248 2.74606 13.7688 1.43105 10.5356 2.53957C7.39605 3.61568 5.81466 6.66361 5.87667 8.92858C6.89852 8.03288 7.90134 7.15409 8.92812 6.25346C9.40803 6.79539 9.87667 7.32534 10.3594 7.87079C9.74066 8.42189 9.13812 8.96029 8.53347 9.498C7.6117 10.3176 6.68992 11.1365 5.76814 11.9554C5.2692 12.3979 4.60113 12.4022 4.16068 11.9152C2.77308 10.3796 1.4031 8.82851 0 7.25346C0.536998 6.77707 1.06695 6.30772 1.61875 5.81864C2.3129 6.59102 2.99929 7.35494 3.72445 8.16184C4.07259 5.62062 5.2086 3.55649 7.18463 1.9913C9.16984 0.418361 11.4454 -0.231393 13.9605 0.0737515C18.019 0.565647 21.3129 3.79539 21.8682 7.77918C22.4496 11.9462 20.1755 15.9969 16.396 17.5424C12.4658 19.1492 8.19168 17.9469 5.74912 14.9272Z" style="" fill="#0A4429"></path></g><defs><clipPath id="clip0_24567_185037"><rect fill="white" height="18.2565" width="21.9584"></rect></clipPath></defs></svg>