<svg xmlns:xlink="http://www.w3.org/1999/xlink" xmlns="http://www.w3.org/2000/svg" width="17" height="15" viewBox="0 0 17 15" fill="none">
<path opacity="0.6" d="M6.45003 4.95773H1.45402C1.01031 4.95773 0.820151 5.5282 1.18318 5.79327L5.2284 8.73211C5.38974 8.84735 5.45889 9.0548 5.3955 9.24496L3.85118 13.999C3.71288 14.4254 4.19693 14.7769 4.55996 14.5118L8.60517 11.573C8.76652 11.4577 8.98549 11.4577 9.14684 11.573L13.192 14.5118C13.5551 14.7769 14.0391 14.4196 13.9008 13.999L12.3565 9.24496C12.2931 9.0548 12.3623 8.84735 12.5236 8.73211L16.0733 6.15054C15.7794 5.74141 15.474 5.34381 15.1513 4.95773H11.2962C11.0945 4.95773 10.9217 4.83095 10.8583 4.64079L9.51563 0.52643C9.14684 0.342032 8.77228 0.16916 8.39196 0.0078125L6.88797 4.64079C6.82458 4.83095 6.65171 4.95773 6.45003 4.95773Z" fill="url(#paint0_radial_25570_184045)"/>
<defs>
<radialGradient id="paint0_radial_25570_184045" cx="0" cy="0" r="1" gradientUnits="userSpaceOnUse" gradientTransform="translate(7.52028 9.91242) scale(12.6506)">
<stop offset="0.00534759" stop-color="white"/>
<stop offset="0.9947" stop-color="white" stop-opacity="0"/>
</radialGradient>
</defs>
</svg>