<svg xmlns:xlink="http://www.w3.org/1999/xlink" xmlns="http://www.w3.org/2000/svg" width="19" height="19" viewBox="0 0 19 19" fill="none">
<g clip-path="url(#clip0_24734_181875)">
<path d="M18.375 5.4419C18.375 5.03785 18.2017 4.88057 17.8061 4.88716C17.0225 4.90035 16.238 4.88716 15.4534 4.89187C14.9043 4.89564 14.8318 4.97098 14.8318 5.52195C14.8299 7.561 14.8309 9.60005 14.8309 11.6391C14.8309 13.6942 14.8365 15.7483 14.8252 17.8033C14.8233 18.2149 14.9571 18.4146 15.3931 18.4071C16.2088 18.392 17.0244 18.3948 17.8391 18.4061C18.2233 18.4108 18.375 18.2347 18.375 17.8646C18.3712 13.7234 18.3702 9.58216 18.375 5.4419Z" fill="white"/>
<path d="M7.92176 8.33327C7.13816 8.34928 6.35456 8.33609 5.57002 8.33892C5.01435 8.3408 4.94559 8.40861 4.94465 8.96335C4.94277 10.4373 4.94371 11.9113 4.94371 13.3852C4.94371 14.8592 4.95125 16.3331 4.93806 17.8071C4.93429 18.2224 5.07933 18.4146 5.50975 18.407C6.32443 18.3929 7.14005 18.3976 7.95567 18.4061C8.3324 18.4098 8.49816 18.2422 8.49816 17.8683C8.49533 14.8733 8.49439 11.8783 8.4991 8.88329C8.4991 8.48207 8.31827 8.32573 7.92176 8.33327Z" fill="white"/>
<path d="M13.4296 14.6794C13.4296 13.6123 13.4212 12.5442 13.4343 11.4772C13.439 11.0816 13.2902 10.896 12.8853 10.9008C12.0696 10.9102 11.2531 10.9111 10.4375 10.9008C10.0315 10.8951 9.88084 11.0844 9.88178 11.4753C9.88837 13.5944 9.88837 15.7135 9.8799 17.8326C9.87801 18.263 10.0692 18.4156 10.4827 18.408C11.2672 18.392 12.0517 18.3892 12.8363 18.409C13.2912 18.4203 13.4438 18.2253 13.4362 17.7874C13.4164 16.7514 13.4296 15.7144 13.4296 14.6794Z" fill="white"/>
<path d="M2.99504 13.7562C2.17942 13.7675 1.36285 13.7675 0.547234 13.7562C0.174271 13.7515 -0.0027922 13.8985 3.32766e-05 14.2818C0.00756788 15.4741 0.00568423 16.6674 3.32766e-05 17.8607C-0.00185037 18.229 0.146016 18.4107 0.532164 18.4051C1.3638 18.3938 2.19543 18.3957 3.02706 18.4041C3.41415 18.4079 3.55542 18.2233 3.54695 17.8522C3.53376 17.2721 3.54318 16.691 3.54318 16.1099C3.54318 15.5137 3.52811 14.9166 3.54789 14.3204C3.56201 13.9164 3.39531 13.7506 2.99504 13.7562Z" fill="white"/>
<path d="M1.7491 10.6323C2.55813 10.6323 3.21458 9.97675 3.21458 9.16678C3.21458 8.9624 3.1722 8.76745 3.09685 8.59038C3.11569 8.56119 3.13547 8.53576 3.15807 8.51504C4.04715 7.72014 4.94848 6.93842 5.85922 6.16895C5.86393 6.16518 5.87052 6.16142 5.87523 6.15765C6.11822 6.33754 6.41867 6.44585 6.74548 6.44585C7.2098 6.44585 7.62326 6.22923 7.89168 5.89111C8.64797 6.22452 9.39766 6.57299 10.1379 6.94031C10.1436 6.94313 10.1502 6.94784 10.1558 6.95161C10.1436 7.02789 10.1351 7.10512 10.1351 7.18518C10.1351 7.99421 10.7906 8.65066 11.6006 8.65066C12.4106 8.65066 13.0661 7.99515 13.0661 7.18518C13.0661 6.92618 12.9983 6.68319 12.8805 6.47222C12.906 6.39122 12.9417 6.31588 12.9869 6.26125C13.9259 5.12353 14.8913 4.00841 15.8397 2.87822C15.8765 2.83395 15.9123 2.79628 15.948 2.76426C16.1505 2.86974 16.3803 2.93002 16.6243 2.93002C17.4333 2.93002 18.0898 2.27451 18.0898 1.46454C18.0879 0.65551 17.4324 0 16.6233 0C15.8143 0 15.1579 0.65551 15.1579 1.46548C15.1579 1.75462 15.2426 2.02304 15.3867 2.25002C15.3481 2.3216 15.2972 2.39223 15.2332 2.46664C14.3102 3.53561 13.3948 4.61117 12.4925 5.69804C12.4256 5.77809 12.3625 5.84402 12.2947 5.89676C12.0875 5.78469 11.8511 5.72158 11.5996 5.72158C11.1438 5.72158 10.7369 5.92973 10.4676 6.25654C10.4506 6.25277 10.4346 6.24806 10.4186 6.24147C9.68491 5.9269 8.96159 5.58408 8.24863 5.22242C8.2298 5.213 8.21096 5.19981 8.19212 5.18569C8.20154 5.11882 8.20813 5.05195 8.20813 4.98225C8.20813 4.17322 7.55262 3.51677 6.74265 3.51677C5.93363 3.51677 5.27717 4.17228 5.27717 4.98225C5.27717 5.17721 5.31579 5.36275 5.38548 5.53322C5.36006 5.57937 5.32992 5.62081 5.29601 5.65095C4.43424 6.42889 3.55458 7.18801 2.66738 7.93581C2.64854 7.95183 2.62594 7.96595 2.60145 7.97914C2.36129 7.80584 2.0665 7.70318 1.74722 7.70318C0.93819 7.70318 0.281738 8.35869 0.281738 9.16866C0.284564 9.97581 0.940074 10.6323 1.7491 10.6323Z" fill="white"/>
</g>
<defs>
<clipPath id="clip0_24734_181875">
<rect width="18.375" height="18.4089" fill="white"/>
</clipPath>
</defs>
</svg>