<svg xmlns:xlink="http://www.w3.org/1999/xlink" fill="none" height="15" viewBox="0 0 20 15" width="20" xmlns="http://www.w3.org/2000/svg"><g clip-path="url(#clip0_24567_185026)" fill="none"><path d="M0 11.1181C0.0663304 10.8362 0.118842 10.5488 0.200373 10.271C0.362053 9.71829 0.583155 9.18626 0.974228 8.75649C1.1746 8.53539 1.41919 8.32673 1.68452 8.19821C2.36164 7.87071 3.06502 7.59709 3.75181 7.29032C4.07517 7.14522 4.38748 6.97525 4.72742 6.80528C4.40544 6.44184 4.19816 6.04939 4.06965 5.61409C4.05168 5.55052 3.98812 5.4994 3.94251 5.4455C3.52933 4.96599 3.27092 4.42705 3.32343 3.77619C3.33587 3.61727 3.34001 3.44592 3.54039 3.3782C3.56941 3.36853 3.58599 3.28285 3.58737 3.23311C3.59981 2.8296 3.56802 2.42194 3.62192 2.02534C3.7684 0.955762 4.36813 0.317332 5.42527 0.0948489C6.17011 -0.0613039 6.91356 -0.0336662 7.62109 0.286931C8.28025 0.5868 8.64644 1.12021 8.81642 1.80838C8.85096 1.94934 8.78049 1.98527 8.66856 2.02258C7.72887 2.33903 7.1623 2.9968 6.9716 3.9586C6.90113 4.31788 6.92185 4.69514 6.90804 5.06548C6.90251 5.29073 6.90942 5.51736 6.90942 5.75228C6.65101 5.81032 6.61231 5.99964 6.59158 6.21245C6.52387 6.93103 6.76847 7.55149 7.22725 8.07799C7.45664 8.34193 7.53956 8.64871 7.67498 8.97345C7.32398 9.13237 6.98404 9.2899 6.63995 9.43915C6.12174 9.66439 5.60354 9.88964 5.08119 10.1024C4.61135 10.2945 4.24376 10.6068 3.98535 11.0338C3.78222 11.3724 3.60948 11.7303 3.44642 12.0896C3.387 12.2209 3.34692 12.2762 3.18801 12.2582C2.1281 12.1393 1.07511 11.9929 0.0760036 11.5921C0.0538935 11.5838 0.0248739 11.5894 0 11.5866C0 11.4304 0 11.2743 0 11.1181Z" style="" fill="#FFFFFF"></path><path d="M8.4999 9.12316C8.17792 8.76249 7.96649 8.37971 7.84627 7.9458C7.82692 7.87671 7.75921 7.82005 7.70946 7.76201C7.27279 7.24657 6.99641 6.67447 7.11249 5.97662C7.12907 5.88127 7.22166 5.79973 7.2714 5.70715C7.30457 5.64634 7.34464 5.57863 7.34741 5.51368C7.36952 5.0853 7.33774 4.64862 7.40545 4.22853C7.57127 3.1935 8.31473 2.51085 9.3622 2.37266C9.98128 2.29113 10.5935 2.30357 11.1904 2.51776C12.0182 2.81348 12.5751 3.55694 12.6179 4.43167C12.6359 4.7951 12.6331 5.15992 12.6511 5.52474C12.6552 5.59245 12.716 5.6574 12.7506 5.72235C12.7976 5.81079 12.8708 5.8937 12.8874 5.98629C13.0007 6.67723 12.7229 7.23966 12.3001 7.75648C12.2213 7.85321 12.1674 7.97344 12.1094 8.08537C11.9311 8.42808 11.757 8.77355 11.5691 9.14389C11.6934 9.21161 11.862 9.31525 12.0417 9.3954C12.7409 9.70908 13.4305 10.0476 14.1477 10.313C14.974 10.6197 15.4798 11.207 15.8156 11.9837C16.0547 12.5364 16.197 13.114 16.2398 13.7152C16.2495 13.8451 16.1998 13.8948 16.0851 13.939C15.372 14.2168 14.6286 14.3633 13.8754 14.4711C12.2089 14.7087 10.5327 14.764 8.85366 14.7018C7.36537 14.6466 5.88261 14.5291 4.43993 14.1173C4.25337 14.0634 4.0682 13.9985 3.89132 13.9197C3.83328 13.8934 3.76557 13.8008 3.76971 13.7428C3.83328 12.7603 4.12486 11.8579 4.73289 11.073C4.93188 10.8174 5.17923 10.6211 5.4791 10.4926C6.17004 10.1941 6.86375 9.89978 7.55055 9.59301C7.86147 9.45482 8.1641 9.29037 8.4999 9.12316Z" style="" fill="#FFFFFF"></path><path d="M12.3278 8.96548C12.4591 8.64764 12.5393 8.34087 12.7701 8.07693C13.2288 7.55043 13.4748 6.93134 13.4057 6.21138C13.385 5.99719 13.3435 5.81064 13.0851 5.74845C13.0851 5.34632 13.0851 4.94972 13.0851 4.55312C13.0865 3.31219 12.4453 2.40567 11.2749 1.99526C11.2445 1.9842 11.2154 1.97176 11.1602 1.95103C11.1823 1.84739 11.1975 1.73961 11.2279 1.63735C11.4946 0.750178 12.115 0.249936 13.0008 0.0785826C13.6393 -0.0444051 14.2818 -0.0305862 14.9078 0.180842C15.8061 0.484856 16.3864 1.28082 16.3989 2.23432C16.4044 2.60467 16.4003 2.97639 16.4003 3.35917C16.6366 3.40339 16.6601 3.5858 16.6753 3.77236C16.7278 4.41632 16.4707 4.94834 16.0728 5.43062C15.9926 5.52735 15.9387 5.64619 15.8793 5.75951C15.6983 6.10774 15.5214 6.45874 15.3238 6.84428C15.7508 7.04604 16.2137 7.27405 16.6849 7.48548C17.1589 7.69829 17.6357 7.90419 18.1193 8.09489C18.6334 8.29664 19.0093 8.64626 19.2884 9.11196C19.7057 9.80981 19.9434 10.5629 20.0001 11.3755C20.0097 11.5123 19.9697 11.58 19.8356 11.6311C19.0963 11.9144 18.3252 12.0581 17.5472 12.1687C17.2971 12.2046 17.0415 12.2143 16.7927 12.2599C16.6462 12.2861 16.6075 12.2253 16.5592 12.1079C16.4376 11.8218 16.3132 11.5344 16.1626 11.2635C15.8544 10.7066 15.4164 10.2948 14.8125 10.0516C14.0607 9.749 13.3214 9.41182 12.5766 9.08846C12.4937 9.05254 12.4149 9.0097 12.3278 8.96548Z" style="" fill="#FFFFFF"></path></g><defs><clipPath id="clip0_24567_185026"><rect fill="white" height="14.7281" width="20"></rect></clipPath></defs></svg>