<?xml version="1.0" encoding="UTF-8" standalone="no"?>
<svg
   width="172.94701"
   height="55.999969"
   viewBox="0 0 172.94701 55.999969"
   fill="none"
   version="1.1"
   id="svg12"
   sodipodi:docname="65e22377d715b2569fa174127e3da342.svg"
   xmlns:inkscape="http://www.inkscape.org/namespaces/inkscape"
   xmlns:sodipodi="http://sodipodi.sourceforge.net/DTD/sodipodi-0.dtd"
   xmlns="http://www.w3.org/2000/svg"
   xmlns:svg="http://www.w3.org/2000/svg">
  <defs
     id="defs16" />
  <sodipodi:namedview
     id="namedview14"
     pagecolor="#ffffff"
     bordercolor="#666666"
     borderopacity="1.0"
     inkscape:pageshadow="2"
     inkscape:pageopacity="0.0"
     inkscape:pagecheckerboard="0" />
  <path
     fill-rule="evenodd"
     clip-rule="evenodd"
     d="m 80.9109,42.5992 c -0.1228,-0.4507 0,-0.6146 0.4095,-0.6146 h 0.2866 c 1.1056,0 1.515,0.5736 1.0646,1.5978 -0.1638,0.3278 -0.3685,0.6145 -0.5732,0.9013 -0.1564,0.2151 -0.2381,0.3275 -0.3476,0.3729 -0.1199,0.0498 -0.2732,0.0191 -0.5942,-0.0451 0.0761,-0.127 0.1562,-0.25 0.2354,-0.3716 l 3e-4,-5e-4 5e-4,-8e-4 3e-4,-4e-4 v -1e-4 c 0.1758,-0.27 0.3468,-0.5327 0.4596,-0.8147 0.3276,-0.7784 0.0409,-1.1062 -0.778,-1.0242 0,-0.0254 -0.0313,-0.0194 -0.0745,-0.0111 -0.0267,0.0051 -0.058,0.0111 -0.0893,0.0111 z m -8.6401,11.0616 h 0.9827 c 0.0674,-0.3707 0.1317,-0.7382 0.1954,-1.1027 l 2e-4,-0.0015 4e-4,-0.0019 v -10e-5 -1e-4 l 1e-4,-2e-4 v -4e-4 c 0.1685,-0.9635 0.3332,-1.9056 0.541,-2.8261 l 0.737,-3.9331 c 0.1396,0 0.2743,0.0048 0.406,0.0095 h 3e-4 c 0.2546,0.009 0.4974,0.0175 0.7402,-0.0095 0.3245,-0.0499 0.3447,-0.2673 0.3666,-0.5037 0.0141,-0.1514 0.0288,-0.3106 0.1248,-0.4385 h -1.3922 c 0.0342,-0.2052 0.0612,-0.3962 0.0871,-0.5788 0.0361,-0.2549 0.0699,-0.4936 0.1176,-0.7322 -1.1055,-0.082 -1.1055,-0.082 -1.3103,0.9422 -0.0409,0.2868 -0.1638,0.4097 -0.4504,0.3688 h -0.9008 c -0.0819,0.3277 -0.1229,0.6145 -0.1638,0.9422 h 1.2284 c -0.022,0.1982 -0.0558,0.3726 -0.0887,0.5425 l -1e-4,2e-4 c -0.0284,0.1462 -0.0561,0.289 -0.075,0.4406 -0.1756,-0.0176 -0.3362,-0.0502 -0.4914,-0.0818 -0.2066,-0.042 -0.4037,-0.0821 -0.6141,-0.0821 -3.3986,-0.0819 -5.1184,3.7692 -4.1766,6.0225 0.3685,0.9013 1.2284,1.3519 2.2111,1.1881 0.6961,-0.1639 1.2694,-0.5326 1.7607,-1.0652 0.0339,-0.034 0.0679,-0.0749 0.1076,-0.1229 0.0562,-0.0679 0.124,-0.1499 0.22,-0.2459 -0.0819,0.4917 -0.1228,0.8604 -0.1638,1.2701 z m -1.5396,-0.8587 v 0 0 h -1e-4 v 0 h -1e-4 v 0 10e-5 h -10e-5 v 0 h -1e-4 v 0 0 h -1e-4 v 0 1e-4 h -1e-4 v 0 h -10e-5 c -0.1144,0.036 -0.2288,0.072 -0.3432,0.121 -0.6552,-0.0409 -1.0646,-0.3277 -1.1875,-0.9832 -0.4095,-1.4749 0.4504,-3.4824 1.8426,-4.1788 0.5733,-0.2868 1.1875,-0.2868 1.8017,-0.123 0.2866,0.082 0.4094,0.2459 0.3275,0.5326 l -0.4913,2.3353 c -0.2048,0.8603 -0.6552,1.5978 -1.4332,2.0894 -0.1719,0.0983 -0.3439,0.1524 -0.5159,0.2065 z m -20.899,-9.2609 h -1.1465 c -0.1327,0.6886 -0.2637,1.3739 -0.3943,2.0575 l -7e-4,0.0034 -1e-4,7e-4 c -0.5144,2.6906 -1.0238,5.3556 -1.6113,8.0986 h 1.1875 c 0.2047,-1.27 0.4094,-2.4991 0.6961,-3.6872 0.2866,-1.0652 0.8189,-1.9665 1.9654,-2.3352 0.778,-0.2868 1.3513,0.1639 1.3922,0.9833 0,0.3687 0,0.6964 -0.0819,1.0651 -0.1365,0.874 -0.3094,1.748 -0.4823,2.622 -0.0864,0.437 -0.1728,0.874 -0.2547,1.311 h 1.1874 c 0.1228,-0.655 0.2455,-1.2692 0.3683,-1.8834 l 2e-4,-0.0011 c 0.2048,-0.9833 0.4095,-2.0075 0.5323,-2.9907 0.1638,-1.352 -0.696,-2.2943 -1.9244,-2.1714 -0.6552,0.041 -1.2694,0.2868 -1.7607,0.8194 -0.1229,0.1639 -0.2048,0.3277 -0.2867,0.4916 l -0.1638,-0.1639 c 0.0292,-0.1652 0.0583,-0.3311 0.0876,-0.4973 l 0.0056,-0.032 0.0028,-0.0163 c 0.2143,-1.2198 0.4327,-2.4625 0.682,-3.6741 z m 56.4458,1.1782 v 10e-5 0.0011 0.0027 c -0.065,0.3187 -0.129,0.6335 -0.185,0.9483 -0.122,0.6965 -0.245,1.352 -0.409,2.1714 0.169,-0.1315 0.312,-0.2545 0.445,-0.3687 0.157,-0.135 0.301,-0.2579 0.456,-0.3688 0.532,-0.3687 1.146,-0.5735 1.801,-0.4916 0.901,0.1229 1.515,0.7375 1.475,1.6797 -0.034,0.8486 -0.181,1.6971 -0.323,2.5224 v 10e-5 1e-4 10e-5 8e-4 c -0.016,0.0914 -0.032,0.1825 -0.047,0.2732 -0.014,0.0786 -0.027,0.1569 -0.04,0.235 -0.035,0.2634 -0.093,0.5267 -0.15,0.7901 -0.077,0.3512 -0.154,0.7023 -0.178,1.0535 -0.04,0.4097 -0.204,0.5736 -0.614,0.5326 -0.133,-0.0268 -0.267,-0.0186 -0.412,-0.0096 -0.077,0.0047 -0.158,0.0096 -0.243,0.0096 0.164,-0.8719 0.327,-1.7075 0.49,-2.5431 l 0.001,-0.0031 v 0 -0.0025 l 0.001,-0.0011 c 0.081,-0.4186 0.163,-0.8372 0.245,-1.2603 0.082,-0.4097 0.164,-0.8603 0.123,-1.27 -0.041,-0.8194 -0.696,-1.2291 -1.433,-0.9423 -1.147,0.4097 -1.72,1.311 -1.966,2.4581 -0.154,0.6694 -0.276,1.3389 -0.396,1.9981 v 2e-4 10e-5 c -0.071,0.3897 -0.142,0.7758 -0.218,1.1562 -0.041,0.1229 -0.082,0.2458 -0.082,0.3687 h -1.146 c 0.123,-0.6136 0.235,-1.2273 0.347,-1.841 v -10e-5 -2e-4 l 0.001,-1e-4 v -10e-5 -2e-4 -1e-4 -2e-4 -1e-4 -10e-5 -2e-4 -1e-4 -2e-4 -10e-5 -1e-4 -2e-4 -10e-5 -2e-4 c 0.112,-0.6146 0.225,-1.2292 0.348,-1.8437 0.123,-0.6556 0.25,-1.3112 0.378,-1.9668 0.254,-1.3109 0.509,-2.6218 0.728,-3.9327 0.081,-0.4917 0.286,-0.5736 0.655,-0.5326 h 0.573 c -0.067,0.4025 -0.146,0.7928 -0.225,1.1776 v 3e-4 z m 11.321,2.4683 v 0.9014 h -0.123 c -1.146,-2.0895 -3.603,-1.7207 -4.831,-0.5736 -0.942,0.9013 -1.434,2.0075 -1.475,3.3185 -0.041,1.0652 0.287,2.0484 1.27,2.622 1.023,0.6145 2.088,0.4916 3.112,-0.082 1.515,-0.8603 2.088,-2.2942 2.129,-3.9739 0,-0.3278 0.082,-0.5326 0.287,-0.7784 0.409,-0.4507 0.778,-0.9423 0.737,-1.5978 0,-0.2458 -0.164,-0.4917 -0.369,-0.6555 -0.123,-0.082 -0.491,-0.041 -0.573,0.0819 -0.091,0.1522 -0.115,0.3497 -0.138,0.542 v 2e-4 l -0.002,0.0218 c -0.003,0.0234 -0.006,0.0467 -0.009,0.0698 -0.004,0.0351 -0.009,0.0698 -0.015,0.1036 z m -2.211,0.4097 c 0.696,0.2458 1.065,0.9013 1.065,1.8846 0,0.9833 -0.287,1.8846 -0.942,2.622 -0.573,0.6965 -1.392,0.9423 -2.089,0.6965 -0.859,-0.3278 -1.105,-1.0242 -1.105,-1.8026 -0.041,-0.9833 0.246,-1.8846 0.901,-2.663 0.614,-0.7375 1.433,-1.0242 2.17,-0.7375 z m -72.2713,0.2048 c -0.0163,-0.1141 -0.0196,-0.2281 -0.0229,-0.3396 -0.0049,-0.1688 -0.0097,-0.3318 -0.059,-0.4798 -0.0819,-0.4097 0,-0.7375 0.3685,-0.8194 0.4095,-0.1229 0.7371,0.1229 0.778,0.5736 0.041,0.6145 -0.2457,1.1061 -0.6142,1.5568 -0.2047,0.2458 -0.2866,0.4506 -0.2457,0.8194 0.1638,2.0484 -1.1055,4.2607 -3.1119,4.6704 -1.8836,0.3687 -3.3167,-0.6555 -3.3986,-2.622 -0.0819,-1.6388 0.5323,-3.0727 1.9655,-4.015 1.4331,-0.9832 2.9481,-0.6964 4.3403,0.6556 z m -5.1183,2.9907 c -0.041,0.9832 0.3275,1.7616 1.0646,2.0075 0.737,0.2867 1.5969,-0.041 2.1702,-0.7785 0.5732,-0.7374 0.8189,-1.5568 0.8598,-2.4581 0.041,-0.9423 -0.4094,-1.7207 -1.0646,-1.9665 -0.737,-0.2458 -1.6788,0.0819 -2.252,0.8194 -0.4914,0.7374 -0.778,1.5158 -0.778,2.3762 z m -2.5936,1.946 c -0.0151,-0.0615 -0.0274,-0.1117 -0.0274,-0.1435 -0.3193,0.0291 -0.6284,0.0633 -0.9345,0.0972 h -3e-4 -3e-4 -1e-4 c -0.557,0.0617 -1.1041,0.1222 -1.6854,0.1487 -1.0646,-0.041 -1.8426,-0.6555 -2.2111,-1.6798 -0.2866,-0.7784 -0.3276,-1.5978 -0.1638,-2.4171 0.3686,-1.8027 1.3103,-3.1137 3.112,-3.6463 0.9827,-0.2868 2.0064,-0.1639 2.9891,0.2458 0.0408,-0.1089 0.0816,-0.2133 0.1225,-0.3176 l 4e-4,-0.0011 c 0.0819,-0.2093 0.1637,-0.4187 0.2456,-0.6645 -1.515,-0.5736 -3.03,-0.5736 -4.4632,0.0819 -2.4158,1.0652 -3.4395,3.5643 -3.2757,5.8176 0.1638,1.9665 1.1055,3.1136 2.8253,3.4824 1.1056,0.2048 2.1702,0.1229 3.2348,-0.2458 0.1638,-0.041 0.2866,-0.2459 0.2866,-0.4097 0,-0.1255 -0.0307,-0.251 -0.0545,-0.3482 z m 53.5315,-1.8231 c 0,-1.8026 1.0236,-3.4414 2.4977,-4.0559 2.293,-0.9423 4.2585,0.5326 4.0128,2.9907 -0.2047,1.7617 -0.9827,3.1546 -2.7434,3.7691 -2.0883,0.7784 -3.7671,-0.4916 -3.7671,-2.7039 z m 5.323,-1.1881 c 0,-1.1062 -0.3685,-1.8436 -0.9827,-2.0894 -0.737,-0.2868 -1.515,-0.0819 -2.1702,0.6145 -0.737,0.8194 -1.0236,1.8436 -0.9827,2.9498 0.041,0.6964 0.3276,1.3519 1.0646,1.5978 0.7371,0.2458 1.3922,0.0409 1.9655,-0.5326 0.737,-0.7784 1.0646,-1.6798 1.1055,-2.5401 z m -36.0327,3.9329 c 1.6788,-0.5326 2.7844,-2.2123 2.8253,-4.1378 0,-0.2868 0,-0.5736 -0.1228,-0.9014 -0.4095,-1.7206 -2.1292,-2.54 -3.8899,-1.8026 -1.5151,0.6146 -2.5387,2.2943 -2.5387,4.1379 0,2.1303 1.6788,3.3594 3.7261,2.7039 z m 0.6961,-5.9814 c 0.778,0.3687 0.9008,1.1061 0.9418,1.9255 -0.0819,1.0242 -0.4095,1.9665 -1.2284,2.7449 -0.5323,0.5326 -1.1465,0.6965 -1.8426,0.4916 -0.6552,-0.2048 -0.9827,-0.7784 -1.0646,-1.4339 -0.1229,-1.27 0.2047,-2.3762 1.1055,-3.2775 0.6142,-0.6145 1.4332,-0.7784 2.0883,-0.4506 z M 119.811,46.778 h 1.023 c -0.01,0.1026 -0.02,0.2027 -0.031,0.3028 v 0.0015 c -0.03,0.2989 -0.061,0.5979 -0.092,0.9658 0.082,-0.1025 0.154,-0.1742 0.215,-0.2356 0.062,-0.0615 0.113,-0.1127 0.154,-0.1741 0.491,-0.5736 1.106,-0.9013 1.843,-1.0243 1.187,-0.2048 2.129,0.5326 2.088,1.7207 -0.034,0.8085 -0.178,1.6446 -0.32,2.4628 v 10e-5 2e-4 0.0039 c -0.031,0.1756 -0.061,0.3503 -0.09,0.5238 -0.104,0.6622 -0.238,1.2949 -0.377,1.9483 v 1e-4 10e-5 1e-4 10e-5 3e-4 c -0.024,0.1143 -0.049,0.2293 -0.073,0.3452 h -1.147 c 0.246,-1.3094 0.491,-2.5779 0.737,-3.8464 v -2e-4 -0.0045 c 0.082,-0.4506 0.123,-0.9013 0.041,-1.3519 -0.081,-0.6965 -0.696,-1.0243 -1.392,-0.8194 -1.146,0.4097 -1.72,1.352 -1.965,2.4581 -0.16,0.6642 -0.284,1.3457 -0.408,2.022 -0.068,0.3666 -0.134,0.7316 -0.206,1.0917 -0.041,0.1229 -0.082,0.2867 -0.123,0.4506 h -1.147 c 0.451,-2.2533 0.86,-4.5475 1.27,-6.8418 z m -40.9069,6.0635 c -1.5559,0.3277 -2.4977,-0.5326 -2.293,-2.2123 0.4095,0 0.778,0 1.1875,-0.041 0.9418,-0.082 1.8835,-0.1639 2.6615,-0.7375 0.6552,-0.4506 0.8599,-1.1061 0.6961,-1.8436 -0.1638,-0.6964 -0.6142,-1.1471 -1.3512,-1.311 -0.9827,-0.2458 -1.8426,0 -2.5797,0.5736 -1.3512,1.0652 -1.9245,2.4991 -1.8016,4.2198 0.0819,1.352 0.9008,2.2123 2.252,2.2943 0.6142,0.0819 1.3103,-0.041 1.9246,-0.2049 0.8189,-0.2048 0.8189,-0.2458 0.5323,-1.0652 l -2e-4,1e-4 c -0.4095,0.1229 -0.8189,0.2457 -1.2283,0.3277 z M 77.3482,49.7278 H 76.734 c 0.2047,-1.3519 1.4331,-2.3762 2.4977,-2.2532 0.3686,0.0819 0.6961,0.2458 0.778,0.6964 0.0819,0.4507 -0.0409,0.8194 -0.4504,1.0652 -0.6961,0.4097 -1.4331,0.4507 -2.2111,0.4916 z m 9.9918,3.0726 c 0.1228,0.9423 0.041,1.0243 -0.8599,1.0243 -1.0236,0 -1.5559,-0.4917 -1.4741,-1.5159 0.0993,-1.0589 0.3053,-2.0911 0.5104,-3.1182 l 6e-4,-0.0033 c 0.0486,-0.2434 0.0972,-0.4865 0.1442,-0.7296 l 1e-4,-8e-4 c 0.0409,-0.2456 0.0818,-0.4911 0.1227,-0.7776 h -0.9417 c 0.0409,-0.8194 0.0409,-0.8194 1.1055,-0.9833 0.041,-0.9013 0.3276,-1.5977 1.4332,-1.5158 -0.0819,0.4916 -0.1638,0.9833 -0.2457,1.5568 h 1.6379 c -0.041,0.3278 -0.0819,0.5736 -0.1638,0.9013 h -1.6379 c -0.1638,0.8604 -0.3276,1.6798 -0.4914,2.4582 -0.0251,0.1382 -0.054,0.2802 -0.0833,0.4237 l -1e-4,6e-4 c -0.0662,0.3244 -0.1339,0.6563 -0.1622,0.9686 -0.2048,1.311 0.1228,1.393 1.1055,1.311 z m 11.0144,1.0243 c 0.9008,0.0409 0.9418,-0.041 0.9008,-0.9833 -1.1874,-0.0819 -1.3103,-0.2048 -1.0236,-1.3929 0.0409,-0.4507 0.1228,-0.8604 0.2047,-1.2701 0.0819,-0.4301 0.1638,-0.8501 0.2457,-1.27 0.0819,-0.4199 0.1638,-0.8399 0.2457,-1.27 h 1.6383 c 0.04,-0.2868 0.081,-0.5736 0.163,-0.9014 h -1.6376 c 0.041,-0.2865 0.0921,-0.5629 0.1433,-0.8392 l 1e-4,-6e-4 10e-5,-6e-4 c 0.0511,-0.2763 0.1023,-0.5527 0.1432,-0.8393 -0.1448,0.0527 -0.2938,0.0926 -0.4361,0.1308 l -5e-4,1e-4 h -1e-4 l -1e-4,10e-5 v 0 h -1e-4 -10e-5 l -1e-4,1e-4 h -1e-4 c -0.3001,0.0804 -0.5706,0.153 -0.7093,0.3196 -0.1638,0.2185 -0.2184,0.5098 -0.273,0.8011 -0.0273,0.1457 -0.0546,0.2914 -0.0956,0.4279 -1.0236,0.082 -1.0236,0.082 -1.0646,0.9423 h 0.9418 c -0.2866,1.393 -0.5323,2.704 -0.778,4.015 -0.2866,1.3929 0.2047,2.0894 1.3922,2.1304 z M 63.2219,46.7783 h 1.1466 c -0.225,1.1459 -0.4397,2.2815 -0.6545,3.4171 v 4e-4 l -10e-5,3e-4 -1e-4,3e-4 v 4e-4 l -10e-5,3e-4 -1e-4,3e-4 -3e-4,0.0018 -3e-4,0.0017 -1e-4,4e-4 -10e-5,3e-4 v 3e-4 l -1e-4,4e-4 v 3e-4 l -10e-5,3e-4 c -0.2147,1.1357 -0.4295,2.2713 -0.6544,3.4172 h -1.1875 c 0.3396,-1.5856 0.6401,-3.1516 0.942,-4.7251 l 1e-4,-5e-4 10e-5,-6e-4 1e-4,-5e-4 10e-5,-5e-4 1e-4,-6e-4 10e-5,-5e-4 c 0.1347,-0.7022 0.2697,-1.4059 0.4086,-2.1135 z m -5.728,-1.6711 -2e-4,2e-4 -10e-5,2e-4 -0.0012,0.0014 c -0.1862,0.2378 -0.3754,0.4793 -0.5762,0.7265 0.7537,0.2424 1.065,-0.1703 1.3876,-0.5979 0.1682,-0.2229 0.3394,-0.4498 0.5779,-0.5902 0.0614,0.1229 0.1126,0.2356 0.1638,0.3483 0.0512,0.1127 0.1023,0.2253 0.1638,0.3482 0.2866,0.6555 0.3275,0.6555 1.1055,0.4916 -0.1433,-0.2868 -0.2764,-0.5633 -0.4094,-0.8398 -0.1331,-0.2766 -0.2662,-0.5531 -0.4095,-0.8399 -0.1638,-0.3687 -0.819,-0.4916 -1.0646,-0.2048 -0.331,0.3821 -0.6304,0.7642 -0.9374,1.1562 z m 23.4174,0.7287 c -0.8374,0.26 -1.0232,-0.2135 -1.2035,-0.6733 -0.0754,-0.1922 -0.1499,-0.382 -0.2706,-0.5148 -0.1978,0.132 -0.3405,0.3448 -0.484,0.5589 -0.3019,0.4505 -0.6078,0.9069 -1.4405,0.6292 0.2662,-0.3073 0.5221,-0.6248 0.778,-0.9423 0.256,-0.3175 0.5119,-0.635 0.778,-0.9423 0.2457,-0.2458 0.8599,-0.0819 1.0237,0.2458 0.2866,0.4917 0.5733,1.0652 0.8189,1.6388 z m 11.3916,-1.2383 c -0.3185,0.4006 -0.637,0.8012 -0.9919,1.2382 0.6142,0.1639 1.0237,0.041 1.2694,-0.5326 0.0831,-0.1247 0.1874,-0.239 0.2966,-0.3587 0.106,-0.1161 0.2168,-0.2375 0.3176,-0.3787 0.0706,0.159 0.1489,0.3105 0.2249,0.4576 0.1003,0.1939 0.1966,0.3802 0.2665,0.5666 0.1735,0.3762 0.4083,0.3436 0.6756,0.3064 0.1111,-0.0154 0.2278,-0.0316 0.348,-0.0196 -0.2866,-0.6555 -0.5323,-1.1881 -0.8189,-1.7617 -0.2047,-0.3687 -0.819,-0.4506 -1.1056,-0.1229 -0.1638,0.2049 -0.323,0.4051 -0.4822,0.6054 z m 4.4632,-1.5888 c 0.0769,-0.1203 0.1555,-0.2432 0.2367,-0.3688 -0.4095,0 -0.7371,0 -1.0237,0.0409 -0.1228,0 -0.2866,0.041 -0.3276,0.123 -0.1918,0.3838 -0.3653,0.786 -0.5573,1.2311 l -4e-4,0.001 -1e-4,4e-4 c -0.0947,0.2195 -0.1939,0.4496 -0.302,0.693 0.1641,-0.0493 0.3283,-0.0722 0.474,-0.0926 0.2177,-0.0304 0.3942,-0.0551 0.4677,-0.1532 0.3692,-0.4366 0.6834,-0.9282 1.0327,-1.4748 z m -31.8655,1.8027 c -0.041,0.4506 -0.4095,0.7784 -0.8599,0.7374 -0.4095,-0.041 -0.6552,-0.3277 -0.6142,-0.7784 0.0409,-0.4507 0.4094,-0.7784 0.8189,-0.7374 0.4095,0.0409 0.6961,0.3687 0.6552,0.7784 z m -7.8614,11.1846 c 0.4504,0.0409 0.737,-0.2458 0.737,-0.6965 0.0409,-0.4097 -0.2047,-0.6965 -0.6552,-0.7374 -0.4094,0 -0.737,0.3277 -0.737,0.7374 0,0.4097 0.2457,0.6965 0.6552,0.6965 z"
     fill="#060a36"
     id="path2" />
  <path
     fill-rule="evenodd"
     clip-rule="evenodd"
     d="m 65.8832,10.6843 c 0.0506,0.003 0.1011,0.0059 0.1517,0.0088 1.3411,0.0775 2.6698,0.1543 3.6563,1.2203 0.737,0.7784 0.9418,1.7616 0.8189,2.7859 -0.2251,1.3923 -0.4604,2.7847 -0.6958,4.1771 l -3e-4,0.0017 v 10e-5 c -0.2354,1.3929 -0.4709,2.7858 -0.6961,4.1787 -0.1637,0.9013 -0.3275,1.8436 -0.4504,2.7449 -0.2047,1.4749 0.5323,2.2533 2.0474,2.1713 0.436,-0.0256 0.8559,-0.0834 1.29,-0.1432 0.2589,-0.0356 0.5228,-0.072 0.7982,-0.1026 -0.1228,1.0652 -0.5732,1.9665 -1.1874,2.7859 -1.8426,2.2942 -4.9136,2.4581 -7.0838,1.229 -1.3512,-0.7784 -1.7197,-2.0894 -1.5559,-3.5233 0.3038,-2.2418 0.678,-4.4484 1.0574,-6.6851 l 0.0891,-0.5254 c 0.2914,-1.7493 0.5951,-3.4987 0.8976,-5.2414 l 1e-4,-10e-4 c 0.2501,-1.4403 0.4993,-2.876 0.7401,-4.3033 0.041,-0.2458 0.0819,-0.4916 0.1229,-0.7784 z M 3.35762,10.8483 C 2.21111,10.5615 1.10556,10.8073 0,11.1351 v 0.4097 c 0.286626,2.0074 0.573252,4.0149 0.818931,6.0224 0.163786,1.1266 0.317339,2.2635 0.470889,3.4004 v 0 c 0.15355,1.1369 0.3071,2.2737 0.47088,3.4004 0.24568,1.5158 0.49136,2.9907 0.90083,4.4246 1.43312,4.7523 7.45227,5.0801 9.90907,2.0484 0.8599,-1.0652 1.5969,-2.2533 2.2521,-3.4823 1.4467,-2.7859 2.8571,-5.5718 4.2675,-8.3576 0.7052,-1.393 1.4104,-2.7859 2.1201,-4.1788 0.6552,-1.1881 1.2694,-2.4172 1.8836,-3.6872 -0.0531,-0.0152 -0.1047,-0.0303 -0.1554,-0.0452 v 0 h -10e-5 v 0 c -0.2235,-0.0657 -0.4299,-0.1263 -0.6635,-0.1597 -2.9072,-0.5326 -5.0774,0.082 -6.5105,2.7449 -1.2089,2.2558 -2.3918,4.5637 -3.5694,6.8614 l -2e-4,2e-4 -1e-4,3e-4 -10e-5,2e-4 -10e-5,3e-4 -2e-4,2e-4 -10e-5,2e-4 c -0.2979,0.5812 -0.5954,1.1618 -0.893,1.7407 -0.6551,1.3109 -1.35116,2.5809 -2.04724,3.8509 l -4e-5,10e-5 C 9.04919,26.4574 8.72161,26.7032 8.3531,26.5803 8.06647,26.4983 7.77984,26.2115 7.657,25.9248 7.45227,25.4331 7.37038,24.9415 7.28849,24.4089 7.02233,22.6473 6.77665,20.8856 6.53097,19.124 v -10e-5 C 6.28529,17.3623 6.03961,15.6007 5.77346,13.839 5.56873,12.4051 4.91359,11.258 3.35762,10.8483 Z m 87.66718,7.4563 c -1.556,-2.622 -4.0128,-3.6872 -7.1248,-3.7282 -0.0989,0.009 -0.2037,0.018 -0.3136,0.0274 h -1e-4 c -0.3905,0.0336 -0.8448,0.0726 -1.3241,0.1365 -5.2003,0.9832 -8.9674,5.4488 -9.1721,9.8325 -0.0819,2.0485 0.4095,3.933 1.8426,5.4489 2.0064,2.2123 4.627,2.8678 7.4933,2.4172 4.0947,-0.6556 7.1247,-2.9088 8.8445,-6.7189 1.1055,-2.4582 1.1874,-4.9983 -0.2457,-7.4154 z m -8.7825,9.7083 c -0.1337,0.0107 -0.2616,0.0209 -0.3896,0.0423 -1.9245,0 -3.2757,-1.393 -3.3986,-3.4004 -0.1228,-2.4172 1.7607,-4.9163 4.1357,-5.4079 1.9245,-0.4097 3.6852,0.7374 4.0127,2.7039 0.4505,2.622 -1.3921,5.4489 -3.9718,6.0224 -0.1374,0.0197 -0.2653,0.0299 -0.3884,0.0397 z M 47.294,26.7442 c -0.115,0.2302 -0.22,0.4705 -0.3254,0.7119 -0.1949,0.4463 -0.3916,0.8968 -0.6573,1.2956 -1.5151,2.2123 -3.7262,3.4004 -6.3059,3.8511 -2.2111,0.4097 -4.3404,0.1229 -6.2239,-1.1062 -2.6206,-1.6797 -3.6852,-4.1378 -3.4396,-7.2105 0.2048,-2.8269 1.3513,-5.2031 3.4805,-7.0876 1.597,-1.4339 3.5215,-2.2124 5.6507,-2.4582 1.8426,-0.2458 3.6852,-0.1638 5.446,0.5736 3.1938,1.352 3.8899,4.5885 2.9072,6.9647 -0.6961,1.6797 -2.1293,2.5811 -3.8081,3.0727 -1.9245,0.5736 -3.808,0.6145 -5.5688,-0.5326 -0.2456,-0.1366 -0.4367,-0.3278 -0.6339,-0.525 -0.0986,-0.0986 -0.1986,-0.1988 -0.3078,-0.2944 0,-0.0205 0.0102,-0.041 0.0204,-0.0614 0.0103,-0.0205 0.0205,-0.041 0.0205,-0.0615 0.2063,0 0.4126,0.0046 0.6173,0.0092 v 0 c 0.4049,0.0091 0.8037,0.018 1.1844,-0.0092 1.1055,-0.0819 2.0883,-0.4916 2.8253,-1.3929 0.6961,-0.8604 0.9418,-1.8436 0.4914,-2.8679 -0.4504,-0.9832 -1.3513,-1.3929 -2.3749,-1.4339 -2.2112,-0.0819 -4.0947,1.5159 -4.5452,3.8921 -0.2456,1.27 -0.1637,2.4991 0.4505,3.6872 0.7779,1.4749 2.1292,2.0484 3.6442,2.3762 2.4978,0.4916 4.8318,0.0409 7.002,-1.311 0.0819,-0.041 0.1638,-0.082 0.2456,-0.1639 0.0819,0 0.1638,0.041 0.2048,0.0819 z m 53.951,-13.5984 c 0.125,-0.7672 0.249,-1.5261 0.385,-2.2976 -1.474,0 -2.8664,0.2049 -4.0539,1.1062 -1.3921,0.9423 -1.8835,2.3762 -2.1701,3.933 -0.2457,1.4748 -0.5016,2.9598 -0.7574,4.4447 l -1e-4,10e-5 v 10e-5 10e-5 l -1e-4,10e-5 c -0.2559,1.4852 -0.5118,2.9703 -0.7575,4.4452 -0.0373,0.2176 -0.0764,0.4352 -0.1156,0.6529 -0.2191,1.2171 -0.439,2.4387 -0.3348,3.6898 0.0819,1.4339 0.778,2.4991 2.1292,3.0726 3.4805,1.4749 7.0843,-0.5735 7.6573,-4.3427 -0.193,0.0258 -0.391,0.0557 -0.59,0.0857 -0.433,0.0655 -0.873,0.1321 -1.294,0.1602 -1.269,0.0409 -2.088,-0.2868 -2.2518,-1.1881 -0.0819,-0.4097 -0.041,-0.8604 0,-1.2701 0.1638,-1.0652 0.3276,-2.1304 0.5323,-3.1546 l 0.4915,-2.7039 c 3.03,-0.2459 5.077,-2.2124 5.077,-4.7524 h -4.258 c 0.109,-0.639 0.211,-1.2616 0.311,-1.8789 z m 13.816,14.6634 c -0.369,2.8678 -2.744,5.0392 -5.815,4.7524 -0.491,-0.041 -0.982,-0.1229 -1.433,-0.2868 -1.924,-0.6555 -2.661,-2.0484 -2.497,-4.0149 0.115,-1.3571 0.332,-2.6939 0.551,-4.039 v -3e-4 c 0.091,-0.5633 0.183,-1.128 0.268,-1.6963 0.409,-2.4582 0.818,-4.8753 1.269,-7.3334 0.491,-2.5811 2.375,-4.1788 4.995,-4.3017 0.295,0 0.622,-0.0332 0.983,-0.0696 0.041,-0.0041 0.082,-0.0082 0.123,-0.0124 -0.136,0.7715 -0.26,1.5305 -0.385,2.2977 -0.1,0.618 -0.202,1.2414 -0.311,1.8811 h 4.258 c -0.204,2.7859 -1.965,4.4246 -5.118,4.7934 -0.164,0.9013 -0.328,1.8436 -0.491,2.7858 -0.016,0.086 -0.031,0.1718 -0.046,0.2573 l -0.036,0.196 v 9e-4 c -0.177,0.9869 -0.35,1.9511 -0.492,2.9462 -0.245,1.6797 0.737,2.2123 2.252,2.1304 0.328,-0.041 0.645,-0.0922 0.963,-0.1434 0.317,-0.0512 0.634,-0.1024 0.962,-0.1434 z m -60.1518,4.6707 c 2.4158,-0.5736 3.6442,-2.2533 4.1765,-4.6705 -0.3685,0.041 -0.7063,0.0922 -1.0441,0.1434 -0.3378,0.0512 -0.6756,0.1024 -1.0442,0.1434 -1.3921,0.0409 -2.4568,-0.4507 -2.1701,-2.2533 0.0819,-0.5327 0.174,-1.0755 0.2661,-1.6184 v -10e-5 l 10e-5,-10e-5 c 0.0921,-0.5427 0.1842,-1.0855 0.2661,-1.618 l 0.4913,-2.8269 c 3.0711,-0.3277 5.0775,-2.2123 5.0775,-4.7933 h -4.2585 c 0.1638,-0.956 0.3276,-1.8755 0.4913,-2.795 l 10e-5,-3e-4 0.0012,-0.0069 v -10e-5 c 0.0815,-0.4574 0.163,-0.9147 0.2444,-1.3766 -0.3276,0.041 -0.6551,0.082 -0.9418,0.082 -2.9072,0.1638 -4.7089,1.8436 -5.2002,4.7114 -0.2653,1.6145 -0.5424,3.217 -0.8187,4.814 -0.2354,1.3615 -0.4702,2.7189 -0.6963,4.0763 -0.0373,0.2684 -0.0759,0.5355 -0.1144,0.8017 -0.173,1.1964 -0.3435,2.3755 -0.377,3.582 -0.041,1.3929 0.5732,2.4991 1.8835,3.1546 1.1875,0.5736 2.4569,0.7374 3.7672,0.4507 z M 27.8034,31.6606 c 1.3513,-0.8604 2.0473,-2.1304 2.1702,-3.8101 -0.1229,0.0204 -0.2252,0.0409 -0.3276,0.0614 -0.1024,0.0205 -0.2047,0.041 -0.3276,0.0615 -0.2358,0.0138 -0.4669,0.0371 -0.6964,0.0603 -0.4482,0.0451 -0.8906,0.0897 -1.3509,0.0626 -1.1465,-0.041 -1.7607,-0.8604 -1.556,-1.9665 0.1638,-0.9833 0.3378,-1.9665 0.5119,-2.9498 0.174,-0.9833 0.348,-1.9665 0.5118,-2.9498 0.0546,-0.3277 0.1092,-0.6509 0.1638,-0.9742 0.1092,-0.6463 0.2184,-1.2927 0.3276,-1.9755 h -0.819 c -2.7434,0 -4.6269,1.4748 -5.2411,4.1788 -0.2457,1.1881 -0.4914,2.4581 -0.6552,3.6872 -0.0247,0.192 -0.0504,0.3849 -0.0762,0.5785 -0.1448,1.087 -0.2923,2.1945 -0.2923,3.2726 0,1.4749 0.737,2.663 2.1292,3.1956 1.9245,0.7374 3.8081,0.6145 5.5278,-0.5326 z"
     fill="#060a36"
     id="path4" />
  <path
     d="m 23.4618,15.9694 c 0.2457,-1.1881 0.4095,-2.2123 0.737,-3.2365 0.2867,-0.8604 0.9828,-1.393 1.8426,-1.6388 1.2284,-0.3687 2.4978,-0.2868 3.8081,-0.2868 -0.2048,0.9423 -0.3276,1.8436 -0.5733,2.7449 -0.3276,1.352 -1.3103,2.0485 -2.6206,2.2124 -0.9827,0.1229 -2.0064,0.1229 -3.1938,0.2048 z"
     fill="#eb0d1e"
     id="path6" />
  <path
     fill-rule="evenodd"
     clip-rule="evenodd"
     d="m 146.385,10.3977 h 4.464 c 0.118,0 0.245,0.0094 0.378,0.0193 0.143,0.0106 0.292,0.0216 0.441,0.0216 0.163,-0.0409 0.368,-0.1638 0.409,-0.2867 0.198,-0.6293598 0.399,-1.2553598 0.6,-1.8799298 v -5.8e-4 l 0.001,-5.2e-4 v -0.00121 c 0.505,-1.57029 1.007,-3.13156 1.446,-4.71378 0.41,-1.43391 -0.245,-2.54007 -1.678,-2.82684805 -1.434,-0.327751 -2.908,-0.614532 -4.382,-0.6964698 -4.668,-0.2458132 -9.008,0.9013128 -12.939,3.40040785 -1.106,0.69647 -1.065,1.67972 0.082,2.33522 0.041,0.02049 0.092,0.05121 0.143,0.08194 0.051,0.03073 0.103,0.06145 0.144,0.08194 0.962,0.51211 1.934,1.01397 2.907,1.51584 v 5e-5 c 0.972,0.50185 1.945,1.0037 2.907,1.5158 1.597,0.81937 3.235,1.4339398 5.077,1.4339398 z M 125.052,21.746 c 0,-2.4991 0.409,-4.9572 1.228,-7.3334 0.491,-1.3929 1.105,-1.8436 2.539,-1.9255 1.986,-0.1024 3.971,-0.2151 5.957,-0.3277 1.986,-0.1127 3.972,-0.2254 5.958,-0.3278 0.28,-0.0164 0.559,-0.0395 0.838,-0.0625 v -10e-5 c 1.112,-0.0916 2.218,-0.1829 3.298,0.1445 0.655,0.2049 1.31,0.4507 1.883,0.8194 0.808,0.5485 1.596,1.1173 2.391,1.6921 0.334,0.241 0.669,0.483 1.008,0.7251 0.123,0.0819 0.286,0.3277 0.245,0.4506 l -0.054,0.1845 -0.049,0.1634 c -0.416,1.4052 -0.841,2.8374 -1.371,4.1996 -0.737,1.9665 -2.211,3.4004 -3.849,4.6705 -4.135,3.2365 -8.271,6.473 -12.365,9.6686 -1.638,1.27 -2.785,1.1061 -3.972,-0.6146 -2.007,-3.0317 -3.194,-6.3501 -3.522,-9.9553 -0.082,-0.6964 -0.123,-1.4337 -0.163,-2.171 z M 146.6,43.6312 v 0 c -0.283,-0.0178 -0.577,-0.0364 -0.871,-0.0899 -1.679,-0.2458 -2.334,-1.1881 -1.884,-2.8678 v -3e-4 c 0.86,-3.1135 1.72,-6.227 2.621,-9.3406 l 0.001,-0.0023 c 0.532,-1.8838 1.064,-3.7676 1.637,-5.6514 0.532,-1.6797 1.228,-3.2775 2.579,-4.4246 0.781,-0.6734 1.615,-1.2582 2.455,-1.8476 0.438,-0.3071 0.878,-0.6155 1.313,-0.9383 0.081,-0.0819 0.327,-0.0409 0.409,0.041 1.392,0.9833 2.784,1.9665 4.095,3.0317 0.901,0.6965 1.433,1.6797 1.801,2.7449 1.024,2.9088 2.048,5.8585 3.071,8.8083 0.41,1.1471 0.246,2.1713 -0.614,3.0726 -3.562,3.974 -7.984,6.3912 -13.226,7.2515 l -0.86,0.1229 v 0 c -0.655,0.041 -1.31,0.0819 -2.088,0.1229 -0.142,-0.0142 -0.289,-0.0235 -0.439,-0.033 z m 22.1,-21.7213 v 7e-4 c -0.082,1.1469 -0.163,2.2938 -0.327,3.4816 -0.123,1.1472 -0.901,1.4749 -1.802,0.7784 -1.351,-0.9832 -2.661,-2.0074 -3.972,-3.0316 -1.433,-1.1062 -2.211,-2.704 -2.702,-4.3837 -0.287,-1.0242 -0.614,-2.0485 -0.942,-3.0317 -0.082,-0.2868 -0.041,-0.4507 0.205,-0.6145 0.756,-0.5521 1.522,-1.1144 2.289,-1.6767 l 0.005,-0.004 0.006,-0.0044 c 0.765,-0.5615 1.531,-1.1231 2.286,-1.6744 1.146,-0.8194 2.252,-0.5326 2.825,0.7374 1.392,2.9908 2.129,6.1044 2.129,9.4229 z M 157.563,10.3976 h 2.785 c 0.901,0 1.801,0 2.702,-0.041 0.164,0 0.369,0 0.533,-0.0409 0.9,-0.1639 1.269,-0.8603898 0.696,-1.6387898 -0.574,-0.77841 -1.229,-1.51584 -1.925,-2.21231 -1.515,-1.55681 -3.194,-2.86781 -5.118,-3.85105 -0.533,-0.24582 -1.106,-0.28678 -1.597,0.1229 -0.492,0.40969 -0.492,0.98325 -0.328,1.51584 l 1.72,5.7766098 c 0.082,0.3277 0.246,0.3687 0.532,0.3687 z"
     fill="#eb0d1e"
     id="path8" />
  <path
     d="m 170.708,40.3201 c 1.25,0 2.239,-0.9915 2.239,-2.24 0,-1.2538 -0.989,-2.24 -2.239,-2.24 -1.251,0 -2.239,0.9915 -2.239,2.24 0,1.2485 0.993,2.24 2.239,2.24 z m 0,-0.4826 c -0.963,0 -1.724,-0.7764 -1.724,-1.7574 0,-0.9862 0.761,-1.7574 1.724,-1.7574 0.967,0 1.724,0.7712 1.724,1.7574 0,0.981 -0.757,1.7574 -1.724,1.7574 z m -0.438,-0.7607 v -0.7921 h 0.366 l 0.509,0.7921 h 0.556 l -0.597,-0.8603 c 0.304,-0.0472 0.494,-0.2885 0.494,-0.6295 0,-0.3777 -0.309,-0.6505 -0.741,-0.6505 h -1.029 v 2.1403 z m 0,-1.7626 h 0.515 c 0.221,0 0.335,0.0997 0.335,0.2938 0,0.2045 -0.129,0.3252 -0.35,0.3252 h -0.5 z"
     fill="#060a36"
     id="path10" />
</svg>
